# xmcd
#
# Track frame offsets: 
#        150
#        11842
#        26653
#        39302
#        53689
#
# Disc length: 932 seconds
#
# Revision: 0
# Processed by: cddbd v1.5.2PL0 Copyright (c) Steve Scherf et al.
# Submitted via: ExactAudioCopy v0.95b4
#
DISCID=3403a205
DTITLE=Various Artist - Trucker's Favorite Radio Requests
DYEAR=2009
DGENRE=Country
TTITLE0=On The Road Again
TTITLE1=I've Been Everywhere
TTITLE2=East Bound And Down
TTITLE3=Highway 40 Blues
TTITLE4=Pickup Man
EXTD=
EXTT0=
EXTT1=
EXTT2=
EXTT3=
EXTT4=
PLAYORDER=
